<svg width="73" height="71" viewBox="0 0 73 71" xmlns="http://www.w3.org/2000/svg"><title>service-digital-strategy</title><path d="M61.47.753c-3.747 1.478-7.306 3.493-9.654 5.463-3.252 2.74-4.52 5.984-3.573 9.07.22.725.992 2.16 1.56 2.9l.54.694-1.793 1.782-1.794 1.783-.875-.725c-9.244-7.52-22.282-8.433-32.433-2.275-7.03 4.26-11.798 11.433-13.11 19.72-.307 2-.307 6.058.014 8.1a28.025 28.025 0 0 0 5.674 13.027l1.152 1.478-3.442 3.42c-1.88 1.883-3.5 3.608-3.587 3.84-.22.593.058 1.347.642 1.695.54.333.976.347 1.515.072.22-.116 1.896-1.71 3.734-3.535l3.34-3.333 1.034.84c5.877 4.722 13.505 6.91 20.942 6.012 5.294-.652 10.18-2.695 14.293-6l1.092-.87 3.5 3.48c3.006 2.955 3.59 3.477 4.04 3.55.993.158 1.722-.537 1.722-1.653 0-.493-.204-.725-3.53-4.043l-3.53-3.507.687-.84C53.858 55.67 56 49.73 56 43.18c0-6.39-2.13-12.462-6.08-17.345-.366-.463-.745-.927-.818-1.028-.117-.145.292-.624 1.648-1.986l1.794-1.78.64.493c2.845 2.16 5.645 2.478 8.562.97 1.517-.796 3.806-3.086 5.25-5.274 1.648-2.493 3.034-5.304 4.186-8.434l.423-1.115h-7.73V3.84c0-3.565-.014-3.84-.248-3.84-.146 0-1.11.348-2.16.753zm-.8 5.81V8.62l-1.532 1.524-1.532 1.52V5.942l1.43-.71c.772-.405 1.458-.724 1.53-.724.06-.014.103.913.103 2.058zm-6.126 4.826v3.273l-1.007 1.028-.99 1.016-.483-.696c-.977-1.42-1.254-2.84-.802-4.128.307-.855 1.37-2.304 2.29-3.1.423-.363.817-.668.89-.668.058 0 .102 1.478.102 3.275zm11.594 1.172c-1.4 2.666-2.42 4.144-3.923 5.636-1.634 1.608-2.582 2.115-3.967 2.115-.715 0-1.123-.102-1.838-.45-.51-.246-1.08-.58-1.283-.738l-.365-.276 4.084-4.07 4.083-4.06h4.184l-.977 1.84zM32.332 18.85c2.99.494 6.388 1.783 8.97 3.406 1.122.71 3.164 2.246 3.18 2.377 0 .043-.978 1.043-2.16 2.217l-2.173 2.144-1.227-.87c-3.908-2.796-8.808-3.984-13.52-3.288C13.855 26.53 6.753 37.963 10.37 49.048c2.026 6.23 7.408 10.925 14.13 12.345 1.707.363 5.426.363 7.103 0C38.516 59.9 43.78 55.206 45.853 48.7c1.734-5.462.728-11.62-2.685-16.344l-.83-1.174 2.172-2.144 2.173-2.16.598.653c.833.93 2.233 3.044 2.96 4.493 4.567 9.07 3.21 19.822-3.5 27.43-6.56 7.462-16.96 10.273-26.51 7.187-1.868-.61-4.87-2.117-6.52-3.276-1.78-1.26-4.77-4.23-6.01-5.984-1.865-2.61-3.34-6.028-4.082-9.42-.277-1.332-.32-1.926-.32-4.78 0-3.652.174-4.854 1.166-7.825 2.712-8.13 9.727-14.417 18.157-16.286 3.18-.71 6.403-.785 9.713-.22zm-2.508 8.985c1.546.188 3.34.68 4.68 1.29 1.124.507 3.268 1.883 3.268 2.086 0 .09-.962 1.103-2.13 2.277L33.515 35.6l-1.254-.636c-1.604-.797-3.033-1.116-4.695-1.014-3.296.188-6.242 2.057-7.73 4.883-.787 1.507-1.065 2.666-1.065 4.347 0 1.68.277 2.84 1.064 4.332 1.473 2.81 4.448 4.695 7.73 4.898 4.36.26 8.546-2.826 9.537-7.057.294-1.217.294-3.086 0-4.332-.114-.55-.48-1.505-.8-2.13l-.583-1.13 2.158-2.143c1.182-1.174 2.188-2.145 2.232-2.145.175 0 1.633 2.32 2.13 3.392.29.623.684 1.768.903 2.536.32 1.23.364 1.666.364 3.782 0 2.115-.044 2.55-.38 3.796C40.85 55.454 32.172 60.41 23.8 58.018c-5.263-1.506-9.29-5.577-10.79-10.924-.35-1.246-.394-1.61-.394-3.912 0-2.32.044-2.652.394-3.956 1.75-6.216 6.81-10.578 13.24-11.39 1.386-.173 2.1-.173 3.574 0zm-.744 9.273a7.573 7.573 0 0 1 1.502.435l.686.29-1.152 1.145-1.167 1.16H28.1c-1.327 0-2.435.723-2.93 1.91-.818 1.943.684 4.174 2.828 4.174 1.824 0 3.093-1.246 3.137-3.086l.014-.826 1.08-1.087c.6-.594 1.14-1.086 1.197-1.086.204 0 .73 1.695.802 2.608.145 1.782-.497 3.448-1.838 4.782-2.42 2.405-6.197 2.42-8.662.03-1.254-1.22-1.852-2.64-1.852-4.377 0-1.797.627-3.217 1.97-4.478 1.472-1.39 3.324-1.956 5.234-1.594z" fill-rule="evenodd"/></svg>