<?xml version="1.0" encoding="UTF-8" standalone="no"?>
<svg width="73px" height="71px" viewBox="0 0 73 71" version="1.1" xmlns="http://www.w3.org/2000/svg" xmlns:xlink="http://www.w3.org/1999/xlink">
    <!-- Generator: Sketch 3.6.1 (26313) - http://www.bohemiancoding.com/sketch -->
    <title>service-digital-strategy</title>
    <desc>Created with Sketch.</desc>
    <defs></defs>
    <g id="Page-1" stroke="none" stroke-width="1" fill="none" fill-rule="evenodd">
        <g id="41-arrow-streamline-target" fill="#000000">
            <g id="Group" transform="translate(36.058335, 35.500000) scale(1, -1) translate(-36.058335, -35.500000) translate(0.058335, 0.000000)">
                <path d="M61.4126729,70.2465306 C57.6646185,68.7685714 54.1061544,66.7544898 51.7581515,64.7838776 C48.5059487,62.0453061 47.2371521,58.7995918 48.1851036,55.7132653 C48.4038616,54.9887755 49.1768067,53.5542857 49.7455776,52.8153061 L50.2851807,52.1197959 L48.4913648,50.337551 L46.6975489,48.5553061 L45.8225168,49.2797959 C36.5763438,56.8 23.5383648,57.7128571 13.3879919,51.5546939 C6.35856694,47.2946939 1.58964173,40.1222449 0.277093513,31.8340816 C-0.0291677382,29.8344898 -0.0291677382,25.7773469 0.291677382,23.7342857 C1.03545471,18.9816327 2.9751093,14.5042857 5.96480247,10.7079592 L7.11692813,9.23 L3.67513502,5.81040816 C1.7938159,3.92673469 0.175006429,2.20244898 0.0875032147,1.97061224 C-0.131254822,1.37653061 0.145838691,0.623061224 0.729193456,0.275306122 C1.26879661,-0.0579591837 1.70631269,-0.0724489796 2.24591584,0.202857143 C2.46467388,0.31877551 4.14181883,1.91265306 5.97938634,3.73836735 L9.31909237,7.07102041 L10.3545471,6.23061224 C16.2318463,1.50693878 23.8592099,-0.681020408 31.2969831,0.217346939 C36.5909276,0.869387755 41.4765238,2.91244898 45.5891749,6.21612245 L46.6829651,7.0855102 L50.1830936,3.60795918 C53.1873707,0.652040816 53.7707255,0.130408163 54.2228254,0.0579591837 C55.2145285,-0.101428571 55.9437219,0.594081633 55.9437219,1.70979592 C55.9437219,2.20244898 55.7395478,2.43428571 52.4144256,5.75244898 L48.8851293,9.25897959 L49.5705711,10.0993878 C53.7998932,15.3302041 55.9437219,21.2710204 55.9437219,27.8204082 C55.9437219,34.2104082 53.8144771,40.2816327 49.8622485,45.1646939 C49.4976518,45.6283673 49.1184712,46.0920408 49.0455519,46.1934694 C48.9288809,46.3383673 49.3372292,46.8165306 50.6935291,48.1785714 L52.487345,49.9608163 L53.1290352,49.4681633 C55.9728897,47.3091837 58.7729926,46.9904082 61.6897664,48.4973469 C63.2064888,49.2942857 65.4961562,51.5836735 66.9399593,53.7716327 C68.5879365,56.2638776 69.973404,59.074898 71.1255297,62.2046939 L71.5484619,63.3204082 L67.6837366,63.3204082 L63.8190113,63.3204082 L63.8190113,67.1602041 C63.8190113,70.7246939 63.8044274,71 63.5710855,71 C63.4252468,71 62.4627114,70.6522449 61.4126729,70.2465306 L61.4126729,70.2465306 Z M60.6105601,64.4361224 L60.6105601,62.3785714 L59.0792538,60.8571429 L57.5479476,59.3357143 L57.5479476,62.2046939 L57.5479476,65.0591837 L58.9771667,65.7691837 C59.7501118,66.174898 60.4355536,66.4936735 60.508473,66.4936735 C60.5668085,66.5081633 60.6105601,65.5808163 60.6105601,64.4361224 L60.6105601,64.4361224 Z M54.485335,59.6110204 L54.485335,56.3363265 L53.4790481,55.307551 L52.487345,54.2932653 L52.0060773,54.9887755 C51.0289581,56.4087755 50.7518645,57.8287755 51.2039645,59.1183673 C51.5102257,59.9732653 52.5748482,61.4222449 53.4936319,62.2191837 C53.9165641,62.5814286 54.3103286,62.8857143 54.383248,62.8857143 C54.4415834,62.8857143 54.485335,61.4077551 54.485335,59.6110204 L54.485335,59.6110204 Z M66.079511,58.4373469 C64.6794596,55.7712245 63.6585887,54.2932653 62.1564502,52.8008163 C60.5230569,51.192449 59.5751054,50.6853061 58.1896378,50.6853061 C57.4750282,50.6853061 57.0666799,50.7867347 56.3520703,51.1344898 C55.8416349,51.3808163 55.272864,51.7140816 55.0686898,51.8734694 L54.7040931,52.1487755 L58.7875764,56.2204082 L62.8710598,60.277551 L64.9565531,60.277551 L67.0566302,60.277551 L66.079511,58.4373469 L66.079511,58.4373469 Z M32.2741024,52.1487755 C35.2637955,51.6561224 38.661837,50.3665306 41.2431819,48.7436735 C42.3661398,48.0336735 44.4078815,46.4977551 44.4224653,46.3673469 C44.4224653,46.3238776 43.4453461,45.3240816 42.2640527,44.1504082 L40.0910562,42.0059184 L38.8660112,42.8753061 C34.9575343,45.6718367 30.0573543,46.86 25.3467645,46.1644898 C13.7963402,44.4691837 6.69399593,33.0367347 10.3107955,21.9520408 C12.3379533,15.7214286 17.719401,11.0267347 24.4425646,9.60673469 C26.1488773,9.2444898 29.867764,9.2444898 31.5449089,9.60673469 C38.4576629,11.0991837 43.7224396,15.7938776 45.793349,22.2997959 C47.5288295,27.762449 46.5225425,33.9206122 43.1099171,38.6442857 L42.2786366,39.8179592 L44.4516331,41.962449 L46.6246296,44.1214286 L47.2225682,43.4693878 C48.0538488,42.5420408 49.4539002,40.4265306 50.1830936,38.977551 C54.7478447,29.9069388 53.3915449,19.1555102 46.6829651,11.5483673 C40.120224,4.08612245 29.7219253,1.27510204 20.169491,4.36142857 C18.3027557,4.97 15.2984787,6.47693878 13.6505015,7.63612245 C11.8712695,8.89673469 8.88157629,11.8671429 7.64194742,13.6204082 C5.77521217,16.2285714 4.30224139,19.6481633 3.55846407,23.0387755 C3.28137055,24.3718367 3.23761894,24.9659184 3.23761894,27.8204082 C3.23761894,31.4718367 3.41262537,32.6744898 4.40432847,35.644898 C7.11692813,43.7736735 14.1317692,50.0622449 22.5612455,51.9314286 C25.740529,52.6414286 28.9635641,52.7138776 32.2741024,52.1487755 L32.2741024,52.1487755 Z M29.7656769,43.165102 C31.311567,42.9767347 33.1053829,42.4840816 34.4470989,41.8755102 C35.5700568,41.3683673 37.7138855,39.9918367 37.7138855,39.7889796 C37.7138855,39.7020408 36.7513502,38.6877551 35.5846407,37.5140816 L33.4553958,35.3985714 L32.201183,36.0361224 C30.5969574,36.8330612 29.1677382,37.1518367 27.5051772,37.0504082 C24.2092227,36.8620408 21.2632812,34.9928571 19.7757265,32.1673469 C18.9881976,30.6604082 18.7111041,29.5012245 18.7111041,27.8204082 C18.7111041,26.1395918 18.9881976,24.9804082 19.7757265,23.4879592 C21.2486973,20.6769388 24.2238066,18.7932653 27.5051772,18.5904082 C31.865754,18.3295918 36.0513245,21.4159184 37.0430276,25.6469388 C37.334705,26.8640816 37.334705,28.7332653 37.0430276,29.9793878 C36.9263566,30.53 36.5617599,31.4863265 36.2409148,32.1093878 L35.65756,33.2395918 L37.8159726,35.3840816 C38.997266,36.5577551 40.003553,37.5285714 40.0473046,37.5285714 C40.222311,37.5285714 41.6806979,35.2102041 42.1765495,34.1379592 C42.4682269,33.514898 42.8619913,32.3702041 43.0807494,31.6022449 C43.4015945,30.3706122 43.4453461,29.9359184 43.4453461,27.8204082 C43.4453461,25.704898 43.4015945,25.2702041 43.0661655,24.0240816 C40.7910819,15.547551 32.1136798,10.5920408 23.7425389,12.9828571 C18.4777622,14.4897959 14.4526143,18.5614286 12.9504758,23.9081633 C12.6004629,25.1542857 12.5567113,25.5165306 12.5567113,27.8204082 C12.5567113,30.1387755 12.6004629,30.4720408 12.9504758,31.7761224 C14.7005401,37.9922449 19.7611427,42.3536735 26.1926289,43.165102 C27.5780965,43.3389796 28.2927061,43.3389796 29.7656769,43.165102 L29.7656769,43.165102 Z M29.0218996,33.8916327 C29.4739995,33.8191837 30.1594413,33.6163265 30.5240381,33.4569388 L31.2094799,33.1671429 L30.0573543,32.022449 L28.8906447,30.8632653 L28.0447803,30.8632653 C26.7176482,30.8632653 25.6092742,30.1387755 25.1134226,28.9506122 C24.296726,27.0089796 25.7988645,24.777551 27.9426932,24.777551 C29.7656769,24.777551 31.0344735,26.0236735 31.0782251,27.8638776 L31.092809,28.6897959 L32.1720153,29.7765306 C32.7699539,30.3706122 33.3095571,30.8632653 33.3678925,30.8632653 C33.5720667,30.8632653 34.097086,29.1679592 34.1700054,28.255102 C34.315844,26.4728571 33.6741538,24.8065306 32.3324378,23.4734694 C29.9115156,21.0681633 26.1342935,21.0536735 23.6696196,23.4444898 C22.4154068,24.6616327 21.8174682,26.0816327 21.8174682,27.8204082 C21.8174682,29.6171429 22.4445746,31.0371429 23.7862905,32.2977551 C25.2592613,33.6887755 27.1114127,34.2538776 29.0218996,33.8916327 L29.0218996,33.8916327 Z" id="Shape"></path>
            </g>
        </g>
    </g>
</svg>